name analog
datacolumns 19
datarows 41
range 0.1975 0.2175
endheader
time	ground_force_vx	ground_force_vy	ground_force_vz	ground_force_px	ground_force_py	ground_force_pz	l_ground_force_vx	l_ground_force_vy	l_ground_force_vz	l_ground_force_px	l_ground_force_py	l_ground_force_pz	ground_torque_x	ground_torque_y	ground_torque_z	l_ground_torque_x	l_ground_torque_y	l_ground_torque_z
0.1975	-0.0	-0.0	-0.0	16.74980926513672	100.7082290649414	-463.1412353515625	2.474928379058838	-81.4812240600586	-389.0411987304688	-0.0	-0.0	-0.0	-0.0	-0.0	-0.0	54918.94140625	-7902.5576171875	-3746.27392578125
0.198	-0.0	-0.0	-0.0	16.393367767333984	100.73870086669922	-462.9820861816406	2.719378709793091	-81.84368133544922	-387.8355712890625	-0.0	-0.0	-0.0	-0.0	-0.0	-0.0	54571.57421875	-7784.8759765625	-3858.820556640625
0.1985	-0.0	-0.0	-0.0	17.217628479003906	100.58834075927734	-465.5654296875	2.4839019775390625	-82.27623748779297	-388.8347473144531	-0.0	-0.0	-0.0	-0.0	-0.0	-0.0	54762.46875	-7526.85693359375	-3964.448974609375
0.199	-0.0	-0.0	-0.0	17.961606979370117	101.22187042236328	-465.6044921875	2.257436990737915	-82.8364028930664	-387.3652648925781	-0.0	-0.0	-0.0	-0.0	-0.0	-0.0	54514.8515625	-7228.9755859375	-4106.8017578125
0.1995	-0.0	-0.0	-0.0	18.70409393310547	101.3412628173828	-464.9040222167969	2.493399143218994	-82.93406677246094	-388.9175415039063	-0.0	-0.0	-0.0	-0.0	-0.0	-0.0	54375.3671875	-6918.5244140625	-4181.78515625
0.2	-0.0	-0.0	-0.0	19.199750900268555	101.19222259521484	-462.1166687011719	2.710469484329224	-83.66094970703125	-391.5924072265625	-0.0	-0.0	-0.0	-0.0	-0.0	-0.0	54483.48046875	-6925.50390625	-4274.509765625
0.2005	-0.0	-0.0	-0.0	19.6956844329834	101.08377075195312	-460.27191162109375	2.6315786838531494	-84.92615509033203	-396.21044921875	-0.0	-0.0	-0.0	-0.0	-0.0	-0.0	54784.16015625	-6650.44970703125	-4380.3134765625
0.201	-0.0	-0.0	-0.0	19.76512336730957	101.09384155273438	-459.0943908691406	2.247389554977417	-85.94678497314453	-399.080322265625	-0.0	-0.0	-0.0	-0.0	-0.0	-0.0	55253.33203125	-6606.3779296875	-4436.88916015625
0.2015	-0.0	-0.0	-0.0	19.72473526000977	100.79638671875	-459.9968566894531	2.148949146270752	-86.95764923095703	-403.1151123046875	-0.0	-0.0	-0.0	-0.0	-0.0	-0.0	56067.73046875	-6539.80224609375	-4470.16455078125
0.202	-0.0	-0.0	-0.0	20.36054229736328	101.0652313232422	-460.0307922363281	2.523205041885376	-87.20257568359375	-404.5872192382813	-0.0	-0.0	-0.0	-0.0	-0.0	-0.0	55832.58203125	-6409.224609375	-4545.810546875
0.2025	-0.0	-0.0	-0.0	20.516416549682617	100.76709747314452	-459.6022033691406	2.582801103591919	-87.89022064208984	-407.0305786132813	-0.0	-0.0	-0.0	-0.0	-0.0	-0.0	56327.89453125	-6152.74072265625	-4657.79931640625
0.203	-0.0	-0.0	-0.0	19.912256240844727	100.47097778320312	-457.3263854980469	2.4735541343688965	-88.43871307373047	-409.2464599609375	-0.0	-0.0	-0.0	-0.0	-0.0	-0.0	56315.48046875	-5911.95849609375	-4671.77685546875
0.20350000000000001	-0.0	-0.0	-0.0	19.476537704467773	99.53004455566406	-455.7155456542969	2.149996757507324	-89.4594497680664	-410.5719604492188	-0.0	-0.0	-0.0	-0.0	-0.0	-0.0	56489.359375	-5607.78173828125	-4817.1875
0.20400000000000001	-0.0	-0.0	-0.0	19.52638053894043	98.68514251708984	-454.0340270996094	2.07942795753479	-89.82315063476562	-412.3065185546875	-0.0	-0.0	-0.0	-0.0	-0.0	-0.0	56555.40234375	-5546.259765625	-4806.78662109375
0.20450000000000002	-0.0	-0.0	-0.0	19.42612648010254	97.6651840209961	-450.6575927734375	2.345480442047119	-90.15512084960938	-412.45941162109375	-0.0	-0.0	-0.0	-0.0	-0.0	-0.0	56470.85546875	-5229.2255859375	-4819.642578125
0.20500000000000002	-0.0	-0.0	-0.0	19.202266693115234	96.4281005859375	-449.8399963378906	2.572612762451172	-90.01058197021484	-413.3955078125	-0.0	-0.0	-0.0	-0.0	-0.0	-0.0	56228.39453125	-4795.29443359375	-5021.23486328125
0.20550000000000002	-0.0	-0.0	-0.0	19.24149513244629	96.27191162109376	-450.4590759277344	2.356292963027954	-90.22603607177734	-413.8548278808594	-0.0	-0.0	-0.0	-0.0	-0.0	-0.0	56417.796875	-4643.89794921875	-5066.18701171875
0.20600000000000002	-0.0	-0.0	-0.0	19.53710174560547	96.4615707397461	-449.90673828125	2.2954068183898926	-90.4580078125	-415.57757568359375	-0.0	-0.0	-0.0	-0.0	-0.0	-0.0	56518.57421875	-4308.62158203125	-5110.578125
0.20650000000000002	-0.0	-0.0	-0.0	19.39762115478516	96.92859649658205	-453.9006652832031	2.572612762451172	-90.87191009521484	-417.2362060546875	-0.0	-0.0	-0.0	-0.0	-0.0	-0.0	56674.61328125	-4136.6328125	-5166.09716796875
0.20700000000000002	-0.0	-0.0	-0.0	19.381664276123047	97.4468765258789	-455.1860961914063	3.0435473918914795	-90.68383026123048	-417.93450927734375	-0.0	-0.0	-0.0	-0.0	-0.0	-0.0	56486.9140625	-3863.197998046875	-5178.6279296875
0.20750000000000002	-0.0	-0.0	-0.0	18.71863555908203	97.87678527832033	-457.3680419921875	3.564192771911621	-91.27477264404295	-419.28607177734375	-0.0	-0.0	-0.0	-0.0	-0.0	-0.0	56471.33203125	-3760.971923828125	-5193.666015625
0.20800000000000002	-0.0	-0.0	-0.0	18.09803771972656	97.96966552734376	-460.1008605957031	3.505802154541016	-91.94287109375	-418.435546875	-0.0	-0.0	-0.0	-0.0	-0.0	-0.0	56235.0	-3488.610595703125	-5301.05908203125
0.2085	-0.0	-0.0	-0.0	17.53890037536621	97.93936157226562	-460.4873962402344	3.205268144607544	-92.05791473388672	-418.3892822265625	-0.0	-0.0	-0.0	-0.0	-0.0	-0.0	56080.45703125	-3123.39599609375	-5288.4228515625
0.209	-0.0	-0.0	-0.0	16.973955154418945	97.72550201416016	-462.6551208496094	2.4839019775390625	-92.74951934814452	-418.2372131347656	-0.0	-0.0	-0.0	-0.0	-0.0	-0.0	56012.8125	-3163.363037109375	-5590.73876953125
0.2095	-0.0	-0.0	-0.0	16.53045654296875	97.76399993896484	-464.7847900390625	1.673620581626892	-93.73297882080078	-421.3792114257813	-0.0	-0.0	-0.0	-0.0	-0.0	-0.0	56289.3984375	-2561.51953125	-5773.4677734375
0.21	-0.0	-0.0	-0.0	16.222265243530273	98.04344177246094	-466.7030944824219	1.1652840375900269	-94.82151794433594	-424.71923828125	-0.0	-0.0	-0.0	-0.0	-0.0	-0.0	56482.0078125	-2329.091552734375	-5985.72802734375
0.2105	-0.0	-0.0	-0.0	16.197860717773438	98.09568786621094	-467.8659973144531	0.7358518242835999	-95.92752075195312	-427.813720703125	-0.0	-0.0	-0.0	-0.0	-0.0	-0.0	57148.5703125	-2468.39599609375	-6135.27392578125
0.211	-0.0	-0.0	-0.0	15.982120513916016	98.97309112548828	-469.9799499511719	-0.0382123477756977	-96.49755859375	-431.5997924804688	-0.0	-0.0	-0.0	-0.0	-0.0	-0.0	57183.97265625	-2086.030029296875	-6266.763671875
0.2115	-0.0	-0.0	-0.0	16.2489013671875	99.40554809570312	-471.2438659667969	-0.4178094565868377	-97.1785659790039	-433.7476501464844	-0.0	-0.0	-0.0	-0.0	-0.0	-0.0	57543.13671875	-1990.2493896484373	-6322.0546875
0.212	-0.0	-0.0	-0.0	16.057891845703125	99.77490997314452	-475.7333984375	-0.9127269983291626	-97.6837921142578	-435.9895324707031	-0.0	-0.0	-0.0	-0.0	-0.0	-0.0	57846.0625	-1793.0489501953125	-6542.98291015625
0.2125	-0.0	-0.0	-0.0	16.389068603515625	99.39321899414062	-476.2873229980469	-1.3687710762023926	-98.25157928466795	-437.1876525878906	-0.0	-0.0	-0.0	-0.0	-0.0	-0.0	57689.91015625	-1651.63623046875	-6657.95703125
0.213	-0.0	-0.0	-0.0	16.27444076538086	99.3293685913086	-478.4562683105469	-1.812185287475586	-98.49140167236328	-435.8403930664063	-0.0	-0.0	-0.0	-0.0	-0.0	-0.0	57400.29296875	-1335.61279296875	-6861.7314453125
0.2135	-0.0	-0.0	-0.0	15.892508506774902	99.59671020507812	-478.2532043457031	-2.255698204040528	-98.41532135009766	-436.4901428222656	-0.0	-0.0	-0.0	-0.0	-0.0	-0.0	57283.5546875	-1027.66162109375	-7044.08447265625
0.214	-0.0	-0.0	-0.0	15.661456108093262	99.62300872802734	-477.8002014160156	-3.2172327041625977	-99.41253662109376	-436.9888610839844	-0.0	-0.0	-0.0	-0.0	-0.0	-0.0	57159.54296875	-748.6851196289062	-7316.587890625
0.2145	-0.0	-0.0	-0.0	15.647923469543455	98.87027740478516	-476.38714599609375	-4.018178462982178	-100.11915588378906	-437.8876953125	-0.0	-0.0	-0.0	-0.0	-0.0	-0.0	57237.0703125	-534.37451171875	-7575.59619140625
0.215	-0.0	-0.0	-0.0	15.573954582214355	98.7967758178711	-478.00244140625	-4.877052307128906	-100.11923217773438	-436.6843566894531	-0.0	-0.0	-0.0	-0.0	-0.0	-0.0	57217.94921875	-25.032915115356445	-7716.31787109375
0.2155	-0.0	-0.0	-0.0	15.752437591552734	98.070556640625	-477.0923767089844	-5.854911804199219	-100.91419219970705	-439.3809814453125	-0.0	-0.0	-0.0	-0.0	-0.0	-0.0	57224.09375	253.22854614257807	-7916.78173828125
0.216	-0.0	-0.0	-0.0	16.0820255279541	97.8651885986328	-478.3011779785156	-6.424801349639893	-100.88742065429688	-438.3333740234375	-0.0	-0.0	-0.0	-0.0	-0.0	-0.0	57195.734375	568.674560546875	-8111.39501953125
0.2165	-0.0	-0.0	-0.0	15.95859718322754	97.4434051513672	-477.29534912109375	-7.60188627243042	-101.81108856201172	-439.48773193359375	-0.0	-0.0	-0.0	-0.0	-0.0	-0.0	57039.56640625	903.9624633789062	-8320.0888671875
0.217	-0.0	-0.0	-0.0	15.724760055541992	97.35823822021484	-476.9419250488281	-8.68991756439209	-102.81640625	-441.9324951171875	-0.0	-0.0	-0.0	-0.0	-0.0	-0.0	57343.29296875	1220.4066162109375	-8626.9287109375
0.2175	-0.0	-0.0	-0.0	15.611839294433594	96.76761627197266	-477.0906066894531	-10.150472640991213	-103.8525390625	-443.86468505859375	-0.0	-0.0	-0.0	-0.0	-0.0	-0.0	57561.94921875	1354.8021240234375	-8856.3388671875
